HIERARCHY
ROOT root
{
	OFFSET	0	13.1	24.9
	CHANNELS 6  Xposition Yposition Zposition Xrotation Yrotation Zrotation
	JOINT spine_1
	{
		OFFSET	0	9.99999	0
		CHANNELS 3  Xrotation Yrotation Zrotation
		JOINT spine_2
		{
			OFFSET	0	112	-10
			CHANNELS 3  Xrotation Yrotation Zrotation
			JOINT spine_3
			{
				OFFSET	0	206.5	19.3
				CHANNELS 3  Xrotation Yrotation Zrotation
				JOINT spine_4
				{
					OFFSET	0	110.4	14.6
					CHANNELS 3  Xrotation Yrotation Zrotation
					JOINT neck_1
					{
						OFFSET	0	71.8	-50.3
						CHANNELS 3  Xrotation Yrotation Zrotation
						JOINT neck_2
						{
							OFFSET	0	86.2	-25.8
							CHANNELS 3  Xrotation Yrotation Zrotation
							JOINT head_ee
							{
								OFFSET	0	179.8	-8.7
								CHANNELS 3  Xrotation Yrotation Zrotation
								End Site
								{
									OFFSET	1	0	0
								}
							}
						}
					}
					JOINT left_clavicle
					{
						OFFSET	-43.2	22.4	-70.8
						CHANNELS 3  Xrotation Yrotation Zrotation
						JOINT left_shoulder
						{
							OFFSET	-93.9	-5.79999	48.7
							CHANNELS 3  Xrotation Yrotation Zrotation
							JOINT left_elbow
							{
								OFFSET	-291.4	-30.8	15.2
								CHANNELS 3  Xrotation Yrotation Zrotation
								JOINT left_lowarm_twist
								{
									OFFSET	-110.7	-3.89999	13.6
									CHANNELS 3  Xrotation Yrotation Zrotation
									JOINT left_hand
									{
										OFFSET	-110.7	-3.89999	13.6
										CHANNELS 3  Xrotation Yrotation Zrotation
										JOINT left_ee
										{
											OFFSET	-80.8	-5.10001	12.1
											CHANNELS 3  Xrotation Yrotation Zrotation
											End Site
											{
												OFFSET	1	0	0
											}
										}
									}
								}
							}
						}
					}
					JOINT right_clavicle
					{
						OFFSET	43.2	22.4	-70.8
						CHANNELS 3  Xrotation Yrotation Zrotation
						JOINT right_shoulder
						{
							OFFSET	93.9	-5.79999	48.7
							CHANNELS 3  Xrotation Yrotation Zrotation
							JOINT right_elbow
							{
								OFFSET	291.4	-30.8	15.2
								CHANNELS 3  Xrotation Yrotation Zrotation
								JOINT right_lowarm_twist
								{
									OFFSET	110.7	-3.89999	13.6
									CHANNELS 3  Xrotation Yrotation Zrotation
									JOINT right_hand
									{
										OFFSET	110.7	-3.89999	13.6
										CHANNELS 3  Xrotation Yrotation Zrotation
										JOINT right_ee
										{
											OFFSET	80.8	-5.10001	12.1
											CHANNELS 3  Xrotation Yrotation Zrotation
											End Site
											{
												OFFSET	1	0	0
											}
										}
									}
								}
							}
						}
					}
				}
			}
		}
	}
	JOINT left_hip
	{
		OFFSET	-82.8	-127.5	0.300001
		CHANNELS 3  Xrotation Yrotation Zrotation
		JOINT left_knee
		{
			OFFSET	-28.2	-396.7	2.2
			CHANNELS 3  Xrotation Yrotation Zrotation
			JOINT left_ankle
			{
				OFFSET	-11.7	-411.3	35.4
				CHANNELS 3  Xrotation Yrotation Zrotation
				JOINT left_toes
				{
					OFFSET	0	-60	-88.6
					CHANNELS 3  Xrotation Yrotation Zrotation
					JOINT left_foot_ee
					{
						OFFSET	-22.5	-16.5	-42.2
						CHANNELS 3  Xrotation Yrotation Zrotation
						End Site
						{
							OFFSET	1	0	0
						}
					}
				}
			}
		}
	}
	JOINT right_hip
	{
		OFFSET	82.8	-127.5	0.300001
		CHANNELS 3  Xrotation Yrotation Zrotation
		JOINT right_knee
		{
			OFFSET	28.2	-396.7	2.2
			CHANNELS 3  Xrotation Yrotation Zrotation
			JOINT right_ankle
			{
				OFFSET	11.7	-411.3	35.4
				CHANNELS 3  Xrotation Yrotation Zrotation
				JOINT right_toes
				{
					OFFSET	0	-60	-88.6
					CHANNELS 3  Xrotation Yrotation Zrotation
					JOINT right_foot_ee
					{
						OFFSET	22.5	-16.5	-42.2
						CHANNELS 3  Xrotation Yrotation Zrotation
						End Site
						{
							OFFSET	1	0	0
						}
					}
				}
			}
		}
	}
}
MOTION
Frames: 14
Frame Time: 0.02
829.794780929 617.368 -1823.95349908 6.13963727851 36.8825549171 3.22678408755 -1.44984 0.0338265 -0.523278 -1.44969 0.067055 -0.520065 -1.4502 0.187323 -0.48977 -1.45052 0.107623 -0.513207 -7.95885 -1.98697 3.43768 -7.92461 -6.14038 2.98004 -0.0 0.0 -0.0 7.0268 -5.7683 13.5798 6.44731 -5.21463 46.0112 1.43742 -35.4509 0.459465 1.67944 0.0561384 -0.207147 0.764931 -10.0798 0.88067 -0.0 0.0 -0.0 10.6736 -3.88078 -20.7725 -44.9846 43.1345 -43.8534 0.734632 19.9972 -0.129519 -45.5199 3.5564 -4.42833 -0.0775937 -16.6819 -6.32067 0.0 0.0 0.0 21.4998 48.3879 -22.5825 -0.641951 0.0259002 0.0951096 -21.8106 -13.3856 3.53958 30.7217 -0.0 -0.0 -0.0 0.0 -0.0 43.472 47.3937 -35.7978 -67.9799 3.12041 -9.34248 18.7397 17.4219 2.83036 7.64962 -0.0 -0.0 0.0 0.0 0.0 
830.437904974 617.368 -1824.91033147 6.11894660371 36.6245653788 3.26136214175 -1.44984 0.0338265 -0.523278 -1.44969 0.067055 -0.520065 -1.4502 0.187323 -0.48977 -1.45052 0.107623 -0.513207 -7.95885 -1.98697 3.43768 -7.92461 -6.14038 2.98004 -0.0 0.0 -0.0 7.0268 -5.7683 13.5798 6.44731 -5.21463 46.0112 1.43742 -35.4509 0.459465 1.67944 0.0561384 -0.207147 0.764931 -10.0798 0.88067 -0.0 0.0 -0.0 10.6736 -3.88078 -20.7725 -44.9846 43.1345 -43.8534 0.734632 19.9972 -0.129519 -45.5199 3.5564 -4.42833 -0.0775937 -16.6819 -6.32067 0.0 0.0 0.0 21.4998 48.3879 -22.5825 -0.641951 0.0259002 0.0951096 -21.8106 -13.3856 3.53958 30.7217 -0.0 -0.0 -0.0 0.0 -0.0 43.472 47.3937 -35.7978 -67.9799 3.12041 -9.34248 18.7397 17.4219 2.83036 7.64962 -0.0 -0.0 0.0 0.0 0.0 
831.576219705 617.879 -1825.53124911 4.21292783599 34.8252076711 5.21741298158 -1.41498 0.0693941 -0.820897 -1.41461 0.121488 -0.814819 -1.41612 0.309019 -0.763676 -1.41689 0.184537 -0.802892 -7.0199 -2.65642 1.21459 -7.01376 -5.8112 0.676117 -0.0 0.0 -0.0 7.47046 -7.85462 14.4529 5.81891 -5.51724 43.8616 1.67715 -39.7169 0.605784 0.759544 0.0261421 -0.0934831 0.263338 -12.8531 -3.69189 -0.0 0.0 -0.0 10.6851 -5.02419 -20.6935 -48.7673 46.0055 -39.8717 0.717413 19.5645 -0.123691 -46.9839 3.72262 -4.51593 -0.357484 -21.6698 -6.59178 0.0 0.0 0.0 22.6897 50.6381 -22.5286 2.38657 -0.10561 -0.350954 -15.9137 -26.4799 2.92204 30.3228 -0.0 -0.0 -0.0 0.0 -0.0 44.7419 45.1001 -34.4943 -65.8652 2.86547 -9.13846 13.1041 12.6232 1.96341 9.02678 -0.0 -0.0 0.0 0.0 0.0 
832.767113903 619.63 -1831.07125105 3.99638352693 35.553368916 6.01820333069 -1.40402 -0.00504894 -0.587641 -1.40383 0.0323538 -0.586772 -1.40402 0.168806 -0.562897 -1.40446 0.0777895 -0.582492 -9.5929 -4.44731 1.57552 -9.60765 -9.43168 0.461096 -0.0 0.0 -0.0 7.76421 -8.40642 15.0576 7.75669 -5.89443 40.1443 1.81805 -42.0025 0.697979 1.02341 0.0349329 -0.126037 -0.121981 -23.3845 -10.7368 -0.0 0.0 -0.0 10.9726 -6.78125 -21.0861 -51.1584 47.3996 -38.0704 0.747652 20.3228 -0.134006 -48.8029 3.93216 -4.61883 -0.404621 -23.1082 -6.88016 0.0 0.0 0.0 17.519 40.2887 -18.8537 0.936498 -0.0396949 -0.138226 -4.67014 -29.5849 0.878002 33.0249 -0.0 -0.0 -0.0 0.0 -0.0 49.9511 46.7678 -39.2511 -47.5337 1.01422 -7.0188 11.6579 5.44301 1.6921 2.57483 -0.0 -0.0 0.0 0.0 0.0 
823.651495464 620.829 -1836.02570977 3.70712843731 34.4179489537 6.68387887692 -1.48342 0.0478112 -0.744343 -1.48311 0.0950774 -0.739792 -1.48415 0.266588 -0.696611 -1.48479 0.153229 -0.729968 -10.2805 -2.46812 5.25321 -10.2201 -8.17878 4.49394 -0.0 0.0 -0.0 7.95389 -9.5159 15.4293 9.62047 -4.22307 37.5022 1.8503 -42.5037 0.719666 0.379225 0.0132075 -0.0466314 -0.219709 -18.6294 -9.40432 -0.0 0.0 -0.0 10.3222 -8.91078 -19.5869 -51.4361 53.2908 -36.8768 0.517422 14.3765 -0.0652582 -53.948 4.54114 -4.87329 -0.140333 -26.6463 -9.72724 0.0 0.0 0.0 11.8583 34.5527 -16.0811 6.86463 -0.342901 -0.996583 -3.89419 -26.5086 0.702194 32.2944 -0.0 -0.0 -0.0 0.0 -0.0 50.07 44.8077 -37.3636 -40.1136 0.474011 -6.01418 2.60687 19.54 0.428599 -3.52936 0.0 0.0 0.0 0.0 0.0 
824.491923071 620.829 -1837.21021759 3.69340009636 34.106320628 6.70826391817 -1.48342 0.0478112 -0.744343 -1.48311 0.0950774 -0.739792 -1.48415 0.266588 -0.696611 -1.48479 0.153229 -0.729968 -10.2805 -2.46812 5.25321 -10.2201 -8.17878 4.49394 -0.0 0.0 -0.0 7.95389 -9.5159 15.4293 9.62047 -4.22307 37.5022 1.8503 -42.5037 0.719666 0.379225 0.0132075 -0.0466314 -0.219709 -18.6294 -9.40432 -0.0 0.0 -0.0 10.3222 -8.91078 -19.5869 -51.4361 53.2908 -36.8768 0.517422 14.3765 -0.0652582 -53.948 4.54114 -4.87329 -0.140333 -26.6463 -9.72724 0.0 0.0 0.0 11.8583 34.5527 -16.0811 6.86463 -0.342901 -0.996583 -3.89419 -26.5086 0.702194 32.2944 -0.0 -0.0 -0.0 0.0 -0.0 50.07 44.8077 -37.3636 -40.1136 0.474011 -6.01418 2.60687 19.54 0.428599 -3.52936 0.0 0.0 0.0 0.0 0.0 
824.701624318 620.829 -1837.50365251 3.69002360264 34.0289338977 6.71429152883 -1.48342 0.0478112 -0.744343 -1.48311 0.0950774 -0.739792 -1.48415 0.266588 -0.696611 -1.48479 0.153229 -0.729968 -10.2805 -2.46812 5.25321 -10.2201 -8.17878 4.49394 -0.0 0.0 -0.0 7.95389 -9.5159 15.4293 9.62047 -4.22307 37.5022 1.8503 -42.5037 0.719666 0.379225 0.0132075 -0.0466314 -0.219709 -18.6294 -9.40432 -0.0 0.0 -0.0 10.3222 -8.91078 -19.5869 -51.4361 53.2908 -36.8768 0.517422 14.3765 -0.0652582 -53.948 4.54114 -4.87329 -0.140333 -26.6463 -9.72724 0.0 0.0 0.0 11.8583 34.5527 -16.0811 6.86463 -0.342901 -0.996583 -3.89419 -26.5086 0.702194 32.2944 -0.0 -0.0 -0.0 0.0 -0.0 50.07 44.8077 -37.3636 -40.1136 0.474011 -6.01418 2.60687 19.54 0.428599 -3.52936 0.0 0.0 0.0 0.0 0.0 
824.6047105 620.829 -1837.36814536 3.69158165621 34.0646801407 6.71150864437 -1.48342 0.0478112 -0.744343 -1.48311 0.0950774 -0.739792 -1.48415 0.266588 -0.696611 -1.48479 0.153229 -0.729968 -10.2805 -2.46812 5.25321 -10.2201 -8.17878 4.49394 -0.0 0.0 -0.0 7.95389 -9.5159 15.4293 9.62047 -4.22307 37.5022 1.8503 -42.5037 0.719666 0.379225 0.0132075 -0.0466314 -0.219709 -18.6294 -9.40432 -0.0 0.0 -0.0 10.3222 -8.91078 -19.5869 -51.4361 53.2908 -36.8768 0.517422 14.3765 -0.0652582 -53.948 4.54114 -4.87329 -0.140333 -26.6463 -9.72724 0.0 0.0 0.0 11.8583 34.5527 -16.0811 6.86463 -0.342901 -0.996583 -3.89419 -26.5086 0.702194 32.2944 -0.0 -0.0 -0.0 0.0 -0.0 50.07 44.8077 -37.3636 -40.1136 0.474011 -6.01418 2.60687 19.54 0.428599 -3.52936 0.0 0.0 0.0 0.0 0.0 
825.161398197 620.829 -1838.14409059 3.68268763773 33.8597709386 6.72742928271 -1.48342 0.0478112 -0.744343 -1.48311 0.0950774 -0.739792 -1.48415 0.266588 -0.696611 -1.48479 0.153229 -0.729968 -10.2805 -2.46812 5.25321 -10.2201 -8.17878 4.49394 -0.0 0.0 -0.0 7.95389 -9.5159 15.4293 9.62047 -4.22307 37.5022 1.8503 -42.5037 0.719666 0.379225 0.0132075 -0.0466314 -0.219709 -18.6294 -9.40432 -0.0 0.0 -0.0 10.3222 -8.91078 -19.5869 -51.4361 53.2908 -36.8768 0.517422 14.3765 -0.0652582 -53.948 4.54114 -4.87329 -0.140333 -26.6463 -9.72724 0.0 0.0 0.0 11.8583 34.5527 -16.0811 6.86463 -0.342901 -0.996583 -3.89419 -26.5086 0.702194 32.2944 -0.0 -0.0 -0.0 0.0 -0.0 50.07 44.8077 -37.3636 -40.1136 0.474011 -6.01418 2.60687 19.54 0.428599 -3.52936 0.0 0.0 0.0 0.0 0.0 
826.783702538 620.829 -1840.37243007 3.6575167382 33.2683352657 6.77295646756 -1.48342 0.0478112 -0.744343 -1.48311 0.0950774 -0.739792 -1.48415 0.266588 -0.696611 -1.48479 0.153229 -0.729968 -10.2805 -2.46812 5.25321 -10.2201 -8.17878 4.49394 -0.0 0.0 -0.0 7.95389 -9.5159 15.4293 9.62047 -4.22307 37.5022 1.8503 -42.5037 0.719666 0.379225 0.0132075 -0.0466314 -0.219709 -18.6294 -9.40432 -0.0 0.0 -0.0 10.3222 -8.91078 -19.5869 -51.4361 53.2908 -36.8768 0.517422 14.3765 -0.0652582 -53.948 4.54114 -4.87329 -0.140333 -26.6463 -9.72724 0.0 0.0 0.0 11.8583 34.5527 -16.0811 6.86463 -0.342901 -0.996583 -3.89419 -26.5086 0.702194 32.2944 -0.0 -0.0 -0.0 0.0 -0.0 50.07 44.8077 -37.3636 -40.1136 0.474011 -6.01418 2.60687 19.54 0.428599 -3.52936 0.0 0.0 0.0 0.0 0.0 
826.439655569 620.829 -1839.90389004 3.6627639616 33.3930655028 6.76340687484 -1.48342 0.0478112 -0.744343 -1.48311 0.0950774 -0.739792 -1.48415 0.266588 -0.696611 -1.48479 0.153229 -0.729968 -10.2805 -2.46812 5.25321 -10.2201 -8.17878 4.49394 -0.0 0.0 -0.0 7.95389 -9.5159 15.4293 9.62047 -4.22307 37.5022 1.8503 -42.5037 0.719666 0.379225 0.0132075 -0.0466314 -0.219709 -18.6294 -9.40432 -0.0 0.0 -0.0 10.3222 -8.91078 -19.5869 -51.4361 53.2908 -36.8768 0.517422 14.3765 -0.0652582 -53.948 4.54114 -4.87329 -0.140333 -26.6463 -9.72724 0.0 0.0 0.0 11.8583 34.5527 -16.0811 6.86463 -0.342901 -0.996583 -3.89419 -26.5086 0.702194 32.2944 -0.0 -0.0 -0.0 0.0 -0.0 50.07 44.8077 -37.3636 -40.1136 0.474011 -6.01418 2.60687 19.54 0.428599 -3.52936 0.0 0.0 0.0 0.0 0.0 
829.07434442 620.829 -1843.43845013 3.62376661496 32.4470877799 6.8351608136 -1.48342 0.0478112 -0.744343 -1.48311 0.0950774 -0.739792 -1.48415 0.266588 -0.696611 -1.48479 0.153229 -0.729968 -10.2805 -2.46812 5.25321 -10.2201 -8.17878 4.49394 -0.0 0.0 -0.0 7.95389 -9.5159 15.4293 9.62047 -4.22307 37.5022 1.8503 -42.5037 0.719666 0.379225 0.0132075 -0.0466314 -0.219709 -18.6294 -9.40432 -0.0 0.0 -0.0 10.3222 -8.91078 -19.5869 -51.4361 53.2908 -36.8768 0.517422 14.3765 -0.0652582 -53.948 4.54114 -4.87329 -0.140333 -26.6463 -9.72724 0.0 0.0 0.0 11.8583 34.5527 -16.0811 6.86463 -0.342901 -0.996583 -3.89419 -26.5086 0.702194 32.2944 -0.0 -0.0 -0.0 0.0 -0.0 50.07 44.8077 -37.3636 -40.1136 0.474011 -6.01418 2.60687 19.54 0.428599 -3.52936 0.0 0.0 0.0 0.0 0.0 
832.399477075 620.829 -1847.73154442 3.57818220887 31.281804857 6.92150492573 -1.48342 0.0478112 -0.744343 -1.48311 0.0950774 -0.739792 -1.48415 0.266588 -0.696611 -1.48479 0.153229 -0.729968 -10.2805 -2.46812 5.25321 -10.2201 -8.17878 4.49394 -0.0 0.0 -0.0 7.95389 -9.5159 15.4293 9.62047 -4.22307 37.5022 1.8503 -42.5037 0.719666 0.379225 0.0132075 -0.0466314 -0.219709 -18.6294 -9.40432 -0.0 0.0 -0.0 10.3222 -8.91078 -19.5869 -51.4361 53.2908 -36.8768 0.517422 14.3765 -0.0652582 -53.948 4.54114 -4.87329 -0.140333 -26.6463 -9.72724 0.0 0.0 0.0 11.8583 34.5527 -16.0811 6.86463 -0.342901 -0.996583 -3.89419 -26.5086 0.702194 32.2944 -0.0 -0.0 -0.0 0.0 -0.0 50.07 44.8077 -37.3636 -40.1136 0.474011 -6.01418 2.60687 19.54 0.428599 -3.52936 0.0 0.0 0.0 0.0 0.0 
836.079614188 620.829 -1852.2807208 3.53194332852 30.0260794757 7.01219033569 -1.48342 0.0478112 -0.744343 -1.48311 0.0950774 -0.739792 -1.48415 0.266588 -0.696611 -1.48479 0.153229 -0.729968 -10.2805 -2.46812 5.25321 -10.2201 -8.17878 4.49394 -0.0 0.0 -0.0 7.95389 -9.5159 15.4293 9.62047 -4.22307 37.5022 1.8503 -42.5037 0.719666 0.379225 0.0132075 -0.0466314 -0.219709 -18.6294 -9.40432 -0.0 0.0 -0.0 10.3222 -8.91078 -19.5869 -51.4361 53.2908 -36.8768 0.517422 14.3765 -0.0652582 -53.948 4.54114 -4.87329 -0.140333 -26.6463 -9.72724 0.0 0.0 0.0 11.8583 34.5527 -16.0811 6.86463 -0.342901 -0.996583 -3.89419 -26.5086 0.702194 32.2944 -0.0 -0.0 -0.0 0.0 -0.0 50.07 44.8077 -37.3636 -40.1136 0.474011 -6.01418 2.60687 19.54 0.428599 -3.52936 0.0 0.0 0.0 0.0 0.0 
